<svg xmlns="http://www.w3.org/2000/svg" width="283.281" height="66.672" viewBox="0 0 283.281 66.672"><defs><style>.a{fill:#e00;}</style></defs><g transform="translate(-0.5 -0.5)"><path class="a" d="M59.287,38.924c5.792,0,14.172-1.195,14.172-8.084a6.482,6.482,0,0,0-.144-1.583L69.866,14.274c-.8-3.3-1.5-4.792-7.283-7.686C58.092,4.292,48.309.5,45.416.5c-2.695,0-3.477,3.472-6.69,3.472-3.093,0-5.389-2.593-8.283-2.593-2.778,0-4.588,1.894-5.987,5.787,0,0-3.894,10.982-4.394,12.575a2.977,2.977,0,0,0-.1.9c0,4.269,16.807,18.265,39.327,18.265m15.061-5.269c.8,3.792.8,4.19.8,4.69,0,6.482-7.288,10.079-16.867,10.079-21.65.014-40.614-12.672-40.614-21.057a8.542,8.542,0,0,1,.7-3.394C10.579,24.344.5,25.733.5,34.632c0,14.575,34.535,32.54,61.88,32.54,20.965,0,26.252-9.482,26.252-16.969,0-5.889-5.093-12.575-14.274-16.566" transform="translate(0 0)"/><path d="M94.26,55.976c.8,3.792.8,4.19.8,4.69,0,6.482-7.288,10.079-16.867,10.079C56.544,70.76,37.58,58.073,37.58,49.689a8.542,8.542,0,0,1,.7-3.394L39.974,42.1a2.977,2.977,0,0,0-.1.88c0,4.269,16.807,18.265,39.327,18.265,5.792,0,14.172-1.195,14.172-8.084a6.481,6.481,0,0,0-.144-1.583Z" transform="translate(-19.912 -22.339)"/><path d="M389.781,60.387c0,5.505,3.31,8.181,9.348,8.181a24.126,24.126,0,0,0,5.505-.778V61.405a11.5,11.5,0,0,1-3.556.537c-2.486,0-3.408-.778-3.408-3.116V49.043h7.2V42.469h-7.2V34.135l-7.871,1.7v6.63h-5.227v6.575h5.209Zm-24.539.148c0-1.7,1.708-2.533,4.287-2.533a19.964,19.964,0,0,1,4.676.583V61.9a9.959,9.959,0,0,1-4.922,1.218c-2.528,0-4.042-.972-4.042-2.579m2.408,8.13a12.053,12.053,0,0,0,7.112-2v1.56h7.788V51.719c0-6.278-4.232-9.723-11.293-9.723a28.744,28.744,0,0,0-12.038,2.824l2.824,5.8a21.026,21.026,0,0,1,7.792-2.046c3.241,0,4.917,1.264,4.917,3.848v1.264a22.932,22.932,0,0,0-5.843-.732c-6.626,0-10.617,2.778-10.617,7.746,0,4.528,3.6,7.982,9.348,7.982m-42.8-.435h8.376V54.886h14.024V68.23h8.4V34.144h-8.366v13.1H333.249v-13.1h-8.376ZM292.959,55.326a6.523,6.523,0,0,1,6.769-6.528,7.973,7.973,0,0,1,5.445,2V59.8a7.575,7.575,0,0,1-5.445,2.065,6.553,6.553,0,0,1-6.769-6.524m12.32,12.9h7.792V32.44l-7.871,1.7v9.691a13.3,13.3,0,1,0-6.815,24.733,11.631,11.631,0,0,0,6.913-2.236ZM269.522,48.441a5.7,5.7,0,0,1,5.4,4.088H264.184a5.378,5.378,0,0,1,5.338-4.088m-13.274,6.945c0,7.5,6.135,13.344,14.02,13.344a15.47,15.47,0,0,0,10.765-3.9l-5.213-4.63a6.965,6.965,0,0,1-5.158,1.949,6.663,6.663,0,0,1-6.334-4.088h18.358V56.1c0-8.181-5.5-14.071-13-14.071a13.228,13.228,0,0,0-13.427,13.339M242.668,41.3c2.778,0,4.334,1.75,4.334,3.848S245.446,49,242.668,49h-8.283V41.3ZM226,68.23h8.376V55.812h6.375l6.431,12.418h9.376l-7.5-13.635A10.311,10.311,0,0,0,255.484,45c0-6.135-4.82-10.857-12.038-10.857H226Z" transform="translate(-121.094 -17.152)"/></g></svg>